<svg xmlns="http://www.w3.org/2000/svg" xmlns:xlink="http://www.w3.org/1999/xlink" version="1.1" width="256" height="256" viewBox="0 0 256 256" xml:space="preserve">
<g style="stroke: none; stroke-width: 0; stroke-dasharray: none; stroke-linecap: butt; stroke-linejoin: miter; stroke-miterlimit: 10; fill: none; fill-rule: nonzero; opacity: 1;" transform="translate(1.4065934065934016 1.4065934065934016) scale(2.81 2.81)">
	<path d="M 38.592 74.436 c 0.384 0 0.768 -0.146 1.061 -0.439 c 0.586 -0.586 0.586 -1.535 0 -2.121 L 12.777 45 l 26.875 -26.875 c 0.586 -0.585 0.586 -1.536 0 -2.121 c -0.586 -0.586 -1.535 -0.586 -2.121 0 L 9.596 43.939 c -0.586 0.585 -0.586 1.536 0 2.121 l 27.936 27.936 C 37.824 74.289 38.208 74.436 38.592 74.436 z" style="stroke: none; stroke-width: 1; stroke-dasharray: none; stroke-linecap: butt; stroke-linejoin: miter; stroke-miterlimit: 10; fill: rgb(255,255,255); fill-rule: nonzero; opacity: 1;" transform=" matrix(1 0 0 1 0 0) " stroke-linecap="round"/>
	<path d="M 10.656 46.5 H 88.5 c 0.829 0 1.5 -0.671 1.5 -1.5 s -0.671 -1.5 -1.5 -1.5 H 10.656 c -0.828 0 -1.5 0.671 -1.5 1.5 S 9.828 46.5 10.656 46.5 z" style="stroke: none; stroke-width: 1; stroke-dasharray: none; stroke-linecap: butt; stroke-linejoin: miter; stroke-miterlimit: 10; fill: rgb(255,255,255); fill-rule: nonzero; opacity: 1;" transform=" matrix(1 0 0 1 0 0) " stroke-linecap="round"/>
	<path d="M 1.5 74.436 c 0.828 0 1.5 -0.672 1.5 -1.5 V 17.064 c 0 -0.829 -0.672 -1.5 -1.5 -1.5 S 0 16.236 0 17.064 v 55.871 C 0 73.764 0.672 74.436 1.5 74.436 z" style="stroke: none; stroke-width: 1; stroke-dasharray: none; stroke-linecap: butt; stroke-linejoin: miter; stroke-miterlimit: 10; fill: rgb(255,255,255); fill-rule: nonzero; opacity: 1;" transform=" matrix(1 0 0 1 0 0) " stroke-linecap="round"/>
</g>
</svg>